<?xml version="1.0" standalone="no"?>
<!DOCTYPE svg PUBLIC "-//W3C//DTD SVG 20010904//EN"
 "http://www.w3.org/TR/2001/REC-SVG-20010904/DTD/svg10.dtd">
<svg version="1.0" xmlns="http://www.w3.org/2000/svg"
 width="256.000000pt" height="256.000000pt" viewBox="0 0 256.000000 256.000000"
 preserveAspectRatio="xMidYMid meet">

<g transform="translate(0.000000,256.000000) scale(0.100000,-0.100000)"
fill="#000000" stroke="none">
<path d="M1080 2543 c-175 -26 -363 -101 -520 -206 -96 -64 -273 -241 -337
-337 -150 -225 -217 -447 -217 -720 0 -357 120 -649 373 -901 189 -190 394
-299 661 -355 105 -22 350 -25 460 -5 169 30 352 105 500 204 96 64 273 241
337 337 295 442 295 998 0 1440 -64 96 -241 273 -337 337 -274 183 -598 256
-920 206z"/>
</g>
</svg>
